# xmcd
#
# Track frame offsets:
#	150
#	13463
#	25241
#	38306
#	52818
#	63494
#	76150
#	93597
#	103578
#
# Disc length: 1584 seconds
#
# Revision: 1
# Processed by: cddbd v1.5.2PL0 Copyright (c) Steve Scherf et al.
# Submitted via: audiograbber 1.83.01
#
DISCID=64062e09
DTITLE=LeDoux,Chris - Sing Me a Song Mr. Rodeo Man
DYEAR=1977
DGENRE=Country
TTITLE0=The Yellow Stud
TTITLE1=All Around Cowboy
TTITLE2=The Lawman Reverend
TTITLE3=Our First Year
TTITLE4=Grange Hall Dance
TTITLE5=Daddy's Biggest Dream
TTITLE6=Silver Tongued Devil
TTITLE7=The Rodeo Fan
TTITLE8=Bad Brahma Bull
EXTD=
EXTT0=
EXTT1=
EXTT2=
EXTT3=
EXTT4=
EXTT5=
EXTT6=
EXTT7=
EXTT8=
PLAYORDER=
